<svg width="57" height="57" viewBox="0 0 57 57" fill="none" xmlns="http://www.w3.org/2000/svg">
<g id="icon-primary">
<circle id="Ellipse 12" cx="28.5" cy="36.6001" r="11" fill="#CDD6F9"/>
<g id="Group">
<path id="Vector" d="M28.5 18.6001C36.6315 18.6001 43.5 25.4686 43.5 33.6001C43.5 41.7316 36.6315 48.6001 28.5 48.6001C20.3685 48.6001 13.5 41.7316 13.5 33.6001C13.5 25.4686 20.3685 18.6001 28.5 18.6001ZM28.5 26.1001C25.9095 26.1001 24 28.0081 24 30.6001C24 33.1921 25.9095 35.1001 28.5 35.1001C31.089 35.1001 33 33.1921 33 30.6001C33 28.0081 31.089 26.1001 28.5 26.1001ZM36.159 40.7581C34.8135 38.7781 32.5695 37.4581 30 37.4581H27C24.429 37.4581 22.1865 38.7781 20.841 40.7581C22.758 42.8101 25.4775 44.1001 28.5 44.1001C31.5225 44.1001 34.242 42.8101 36.159 40.7581Z" fill="#0432DF"/>
</g>
<g id="Group 5">
<path id="Star 1" d="M12.3098 17.1855C12.3697 17.0012 12.6303 17.0012 12.6902 17.1855L13.3532 19.2258C13.3799 19.3082 13.4567 19.364 13.5434 19.364H15.6887C15.8824 19.364 15.963 19.612 15.8062 19.7258L14.0706 20.9868C14.0005 21.0378 13.9712 21.128 13.998 21.2104L14.6609 23.2508C14.7208 23.435 14.5099 23.5882 14.3532 23.4744L12.6176 22.2134C12.5475 22.1624 12.4525 22.1624 12.3824 22.2134L10.6468 23.4744C10.4901 23.5882 10.2792 23.435 10.3391 23.2508L11.002 21.2104C11.0288 21.128 10.9995 21.0378 10.9294 20.9868L9.19375 19.7258C9.03701 19.612 9.11757 19.364 9.31131 19.364H11.4566C11.5433 19.364 11.6201 19.3082 11.6468 19.2258L12.3098 17.1855Z" fill="#CDD6F9"/>
<path id="Star 4" d="M44.6902 17.1855C44.6303 17.0012 44.3697 17.0012 44.3098 17.1855L43.6468 19.2258C43.6201 19.3082 43.5433 19.364 43.4566 19.364H41.3113C41.1176 19.364 41.037 19.612 41.1938 19.7258L42.9294 20.9868C42.9995 21.0378 43.0288 21.128 43.002 21.2104L42.3391 23.2508C42.2792 23.435 42.4901 23.5882 42.6468 23.4744L44.3824 22.2134C44.4525 22.1624 44.5475 22.1624 44.6176 22.2134L46.3532 23.4744C46.5099 23.5882 46.7208 23.435 46.6609 23.2508L45.998 21.2104C45.9712 21.128 46.0005 21.0378 46.0706 20.9868L47.8062 19.7258C47.963 19.612 47.8824 19.364 47.6887 19.364H45.5434C45.4567 19.364 45.3799 19.3082 45.3532 19.2258L44.6902 17.1855Z" fill="#CDD6F9"/>
<path id="Star 2" d="M19.3098 11.1855C19.3697 11.0012 19.6303 11.0012 19.6902 11.1855L20.3532 13.2258C20.3799 13.3082 20.4567 13.364 20.5434 13.364H22.6887C22.8824 13.364 22.963 13.612 22.8062 13.7258L21.0706 14.9868C21.0005 15.0378 20.9712 15.128 20.998 15.2104L21.6609 17.2508C21.7208 17.435 21.5099 17.5882 21.3532 17.4744L19.6176 16.2134C19.5475 16.1624 19.4525 16.1624 19.3824 16.2134L17.6468 17.4744C17.4901 17.5882 17.2792 17.435 17.3391 17.2508L18.002 15.2104C18.0288 15.128 17.9995 15.0378 17.9294 14.9868L16.1938 13.7258C16.037 13.612 16.1176 13.364 16.3113 13.364H18.4566C18.5433 13.364 18.6201 13.3082 18.6468 13.2258L19.3098 11.1855Z" fill="#CDD6F9"/>
<path id="Star 5" d="M37.6902 11.1855C37.6303 11.0012 37.3697 11.0012 37.3098 11.1855L36.6468 13.2258C36.6201 13.3082 36.5433 13.364 36.4566 13.364H34.3113C34.1176 13.364 34.037 13.612 34.1938 13.7258L35.9294 14.9868C35.9995 15.0378 36.0288 15.128 36.002 15.2104L35.3391 17.2508C35.2792 17.435 35.4901 17.5882 35.6468 17.4744L37.3824 16.2134C37.4525 16.1624 37.5475 16.1624 37.6176 16.2134L39.3532 17.4744C39.5099 17.5882 39.7208 17.435 39.6609 17.2508L38.998 15.2104C38.9712 15.128 39.0005 15.0378 39.0706 14.9868L40.8062 13.7258C40.963 13.612 40.8824 13.364 40.6887 13.364H38.5434C38.4567 13.364 38.3799 13.3082 38.3532 13.2258L37.6902 11.1855Z" fill="#CDD6F9"/>
<path id="Star 3" d="M28.3098 9.18551C28.3697 9.00124 28.6303 9.00125 28.6902 9.18551L29.3532 11.2258C29.3799 11.3082 29.4567 11.364 29.5434 11.364H31.6887C31.8824 11.364 31.963 11.612 31.8062 11.7258L30.0706 12.9868C30.0005 13.0378 29.9712 13.128 29.998 13.2104L30.6609 15.2508C30.7208 15.435 30.5099 15.5882 30.3532 15.4744L28.6176 14.2134C28.5475 14.1624 28.4525 14.1624 28.3824 14.2134L26.6468 15.4744C26.4901 15.5882 26.2792 15.435 26.3391 15.2508L27.002 13.2104C27.0288 13.128 26.9995 13.0378 26.9294 12.9868L25.1938 11.7258C25.037 11.612 25.1176 11.364 25.3113 11.364H27.4566C27.5433 11.364 27.6201 11.3082 27.6468 11.2258L28.3098 9.18551Z" fill="#CDD6F9"/>
</g>
</g>
</svg>
