<svg width="37" height="37" viewBox="0 0 37 37" fill="none" xmlns="http://www.w3.org/2000/svg">
<g id="icon">
<g id="Group">
<path id="Vector" d="M9.51438 19.8893L9.51445 19.8893L9.522 19.8997C10.7303 21.5683 12.1853 23.021 13.6963 24.3078L13.7133 24.3223L13.7296 24.3374C14.4196 24.9802 15.5503 25.9494 16.6078 26.7629C17.1373 27.1703 17.6325 27.5263 18.0355 27.7802C18.2302 27.9028 18.3888 27.9923 18.5096 28.0509C18.6442 27.9863 18.8258 27.8742 19.0599 27.6981C19.2287 27.5712 19.3963 27.4337 19.5727 27.2888L19.5855 27.2783C19.7476 27.1451 19.9262 26.9983 20.0947 26.8743C23.4223 24.3424 26.8382 21.3793 28.5494 18.2252C29.9556 15.2213 29.8553 11.7373 27.8984 9.66309C25.2489 7.30089 21.2835 7.78545 19.2893 10.243L18.4924 11.2251L17.7206 10.2231C17.1874 9.53097 16.538 8.98753 15.7644 8.58616C12.518 7.31226 9.24532 8.63 7.90039 11.4676C6.95694 14.4558 7.75826 17.5288 9.51438 19.8893Z" stroke="#4C526A" stroke-width="2"/>
</g>
</g>
</svg>
