<svg width="40" height="40" viewBox="0 0 40 40" fill="none" xmlns="http://www.w3.org/2000/svg">
<g id="ri:double-quotes-r">
<g id="Group">
<path id="Vector" d="M32.3615 11.1317C34.0782 12.9551 34.9999 15.0001 34.9999 18.3151C34.9999 24.1484 30.9049 29.3768 24.9499 31.9618L23.4615 29.6651C29.0199 26.6584 30.1065 22.7568 30.5399 20.2968C29.6449 20.7601 28.4732 20.9218 27.3249 20.8151C24.3182 20.5367 21.9482 18.0684 21.9482 15.0001C21.9482 13.453 22.5628 11.9693 23.6567 10.8753C24.7507 9.78133 26.2344 9.16675 27.7815 9.16675C29.5699 9.16675 31.2799 9.98341 32.3615 11.1317ZM15.6949 11.1317C17.4115 12.9551 18.3332 15.0001 18.3332 18.3151C18.3332 24.1484 14.2382 29.3768 8.2832 31.9618L6.79487 29.6651C12.3532 26.6584 13.4399 22.7568 13.8732 20.2968C12.9782 20.7601 11.8065 20.9218 10.6582 20.8151C7.65154 20.5367 5.2832 18.0684 5.2832 15.0001C5.2832 13.453 5.89778 11.9693 6.99175 10.8753C8.08571 9.78133 9.56944 9.16675 11.1165 9.16675C12.9049 9.16675 14.6149 9.98341 15.6965 11.1317H15.6949Z" fill="#F59E00"/>
</g>
</g>
</svg>
